<?xml version="1.0" standalone="no"?>
<!DOCTYPE svg PUBLIC "-//W3C//DTD SVG 20010904//EN"
  "http://www.w3.org/TR/2001/REC-SVG-20010904/DTD/svg10.dtd">
<svg width="8" height="3">
  <circle cx="0" cy="0" r="1" fill="srgba(49.8031%,0%,0%,0.00722145)"/>
  <circle cx="1" cy="0" r="1" fill="srgba(49.8956%,0%,0%,0.0494732)"/>
  <circle cx="2" cy="0" r="1" fill="srgba(16.4174%,0%,0%,0.00247661)"/>
  <circle cx="3" cy="0" r="1" fill="srgba(0.329364%,0%,0%,0.00538238)"/>
  <circle cx="4" cy="0" r="1" fill="srgba(0%,0%,0%,0.00745338)"/>
  <circle cx="5" cy="0" r="1" fill="srgba(0%,0%,0%,0.0163673)"/>
  <circle cx="6" cy="0" r="1" fill="srgba(0%,0%,0%,0.0879134)"/>
  <circle cx="7" cy="0" r="1" fill="srgba(0%,0%,0%,0.0294882)"/>
  <circle cx="0" cy="1" r="1" fill="srgba(49.8038%,0%,0%,0.0380595)"/>
  <circle cx="1" cy="1" r="1" fill="srgba(50.123%,0%,0%,0.193871)"/>
  <circle cx="2" cy="1" r="1" fill="srgba(23.4244%,0%,0%,0.0427165)"/>
  <circle cx="3" cy="1" r="1" fill="srgba(-0.617322%,0%,0%,0.0730713)"/>
  <circle cx="4" cy="1" r="1" fill="srgba(0%,0%,0%,0.0918087)"/>
  <circle cx="5" cy="1" r="1" fill="srgba(0%,0%,0%,0.080647)"/>
  <circle cx="6" cy="1" r="1" fill="srgba(0%,0%,0%,0.231565)"/>
  <circle cx="7" cy="1" r="1" fill="srgba(0%,0%,0%,0.102822)"/>
  <circle cx="0" cy="2" r="1" fill="srgba(49.8042%,0%,0%,0.026051)"/>
  <circle cx="1" cy="2" r="1" fill="srgba(49.8602%,0%,0%,0.0807118)"/>
  <circle cx="2" cy="2" r="1" fill="srgba(45.3664%,0%,0%,0.0186273)"/>
  <circle cx="3" cy="2" r="1" fill="srgba(-11.9472%,0%,0%,0.00430877)"/>
  <circle cx="4" cy="2" r="1" fill="srgba(0%,0%,0%,0.00751012)"/>
  <circle cx="5" cy="2" r="1" fill="srgba(0%,0%,0%,0.0164883)"/>
  <circle cx="6" cy="2" r="1" fill="srgba(0%,0%,0%,0.0898846)"/>
  <circle cx="7" cy="2" r="1" fill="srgba(0%,0%,0%,0.0364011)"/>
</svg>
